<?xml version="1.0" encoding="UTF-8"?>
<svg width="20px" height="20px" viewBox="0 0 32 32" version="1.1" xmlns="http://www.w3.org/2000/svg" xmlns:xlink="http://www.w3.org/1999/xlink">
    <path fill="#657482" d="M21.1760252,19.7618116 L25.7071068,24.2928932 C26.0976311,24.6834175 26.0976311,25.3165825 25.7071068,25.7071068 C25.3165825,26.0976311 24.6834175,26.0976311 24.2928932,25.7071068 L19.7618116,21.1760252 C18.3145189,22.3182963 16.4868697,23 14.5,23 C9.80557963,23 6,19.1944204 6,14.5 C6,9.80557963 9.80557963,6 14.5,6 C19.1944204,6 23,9.80557963 23,14.5 C23,16.4868697 22.3182963,18.3145189 21.1760252,19.7618116 Z M14.5,21 C18.0898509,21 21,18.0898509 21,14.5 C21,10.9101491 18.0898509,8 14.5,8 C10.9101491,8 8,10.9101491 8,14.5 C8,18.0898509 10.9101491,21 14.5,21 Z" id="path-1"></path>
</svg>